<mxfile host="65bd71144e">
    <diagram id="ShO7q3t4R8ToIVqjYavh" name="Seite-1">
        <mxGraphModel dx="1022" dy="800" grid="1" gridSize="10" guides="1" tooltips="1" connect="1" arrows="1" fold="1" page="1" pageScale="1" pageWidth="2336" pageHeight="1654" math="0" shadow="0">
            <root>
                <mxCell id="0"/>
                <mxCell id="1" parent="0"/>
                <mxCell id="2" value="Business-Layer" style="rounded=0;whiteSpace=wrap;html=1;fillColor=#d5e8d4;strokeColor=#82b366;gradientColor=#97d077;align=left;verticalAlign=top;" parent="1" vertex="1">
                    <mxGeometry x="40" y="80" width="1360" height="1080" as="geometry"/>
                </mxCell>
                <mxCell id="15" value="server" style="shape=folder;fontStyle=1;spacingTop=10;tabWidth=40;tabHeight=14;tabPosition=left;html=1;align=left;verticalAlign=top;fillColor=#f5f5f5;gradientColor=#b3b3b3;strokeColor=#666666;" parent="1" vertex="1">
                    <mxGeometry x="55" y="607.5" width="150" height="80" as="geometry"/>
                </mxCell>
                <mxCell id="14" value="context" style="html=1;fillColor=#dae8fc;gradientColor=#7ea6e0;strokeColor=#6c8ebf;" parent="1" vertex="1">
                    <mxGeometry x="65" y="647.5" width="60" height="30" as="geometry"/>
                </mxCell>
                <mxCell id="16" value="logger" style="html=1;fillColor=#dae8fc;gradientColor=#7ea6e0;strokeColor=#6c8ebf;" parent="1" vertex="1">
                    <mxGeometry x="135" y="647.5" width="60" height="30" as="geometry"/>
                </mxCell>
                <mxCell id="17" value="model" style="shape=folder;fontStyle=1;spacingTop=10;tabWidth=40;tabHeight=14;tabPosition=left;html=1;align=left;verticalAlign=top;fillColor=#f5f5f5;gradientColor=#b3b3b3;strokeColor=#666666;" parent="1" vertex="1">
                    <mxGeometry x="395" y="610" width="335" height="220" as="geometry"/>
                </mxCell>
                <mxCell id="24" value="auth" style="shape=folder;fontStyle=1;spacingTop=10;tabWidth=40;tabHeight=14;tabPosition=left;html=1;align=left;verticalAlign=top;fillColor=#f5f5f5;gradientColor=#b3b3b3;strokeColor=#666666;" parent="1" vertex="1">
                    <mxGeometry x="55" y="697.5" width="155" height="80" as="geometry"/>
                </mxCell>
                <mxCell id="25" value="RIGHTS" style="html=1;fillColor=#dae8fc;gradientColor=#7ea6e0;strokeColor=#6c8ebf;" parent="1" vertex="1">
                    <mxGeometry x="65" y="737.5" width="60" height="30" as="geometry"/>
                </mxCell>
                <mxCell id="26" value="repository" style="shape=folder;fontStyle=1;spacingTop=10;tabWidth=40;tabHeight=14;tabPosition=left;html=1;align=left;verticalAlign=top;fillColor=#f5f5f5;gradientColor=#b3b3b3;strokeColor=#666666;" parent="1" vertex="1">
                    <mxGeometry x="52.5" y="1023" width="160" height="120" as="geometry"/>
                </mxCell>
                <mxCell id="27" value="User" style="html=1;fillColor=#f8cecc;gradientColor=#ea6b66;strokeColor=#b85450;" parent="1" vertex="1">
                    <mxGeometry x="62.5" y="1063" width="60" height="30" as="geometry"/>
                </mxCell>
                <mxCell id="28" value="arg" style="shape=folder;fontStyle=1;spacingTop=10;tabWidth=40;tabHeight=14;tabPosition=left;html=1;align=left;verticalAlign=top;fillColor=#f5f5f5;gradientColor=#b3b3b3;strokeColor=#666666;" parent="1" vertex="1">
                    <mxGeometry x="742.5" y="840.5" width="340" height="259.5" as="geometry"/>
                </mxCell>
                <mxCell id="29" value="AdminCreate&lt;br&gt;ContributionArgs" style="html=1;fillColor=#f8cecc;gradientColor=#ea6b66;strokeColor=#b85450;" parent="1" vertex="1">
                    <mxGeometry x="752.5" y="880.5" width="100" height="30" as="geometry"/>
                </mxCell>
                <mxCell id="30" value="AdminUpdate&lt;br&gt;ContributionArgs" style="html=1;fillColor=#f8cecc;gradientColor=#ea6b66;strokeColor=#b85450;" parent="1" vertex="1">
                    <mxGeometry x="860" y="880.5" width="100" height="30" as="geometry"/>
                </mxCell>
                <mxCell id="32" value="SearchUsersArgs" style="html=1;fillColor=#f8cecc;gradientColor=#ea6b66;strokeColor=#b85450;" parent="1" vertex="1">
                    <mxGeometry x="752.5" y="920.5" width="100" height="30" as="geometry"/>
                </mxCell>
                <mxCell id="33" value="Contribution&lt;br&gt;LinkArgs" style="html=1;fillColor=#f8cecc;gradientColor=#ea6b66;strokeColor=#b85450;" parent="1" vertex="1">
                    <mxGeometry x="860" y="920.5" width="100" height="30" as="geometry"/>
                </mxCell>
                <mxCell id="34" value="entity" style="shape=folder;fontStyle=1;spacingTop=10;tabWidth=40;tabHeight=14;tabPosition=left;html=1;align=left;verticalAlign=top;fillColor=#f5f5f5;gradientColor=#b3b3b3;strokeColor=#666666;" parent="1" vertex="1">
                    <mxGeometry x="1097.5" y="610" width="260" height="220" as="geometry"/>
                </mxCell>
                <mxCell id="35" value="Transaction" style="html=1;fillColor=#f8cecc;gradientColor=#ea6b66;strokeColor=#b85450;" parent="1" vertex="1">
                    <mxGeometry x="1102.5" y="650" width="75" height="30" as="geometry"/>
                </mxCell>
                <mxCell id="36" value="Contribution&lt;br&gt;Link" style="html=1;fillColor=#f8cecc;gradientColor=#ea6b66;strokeColor=#b85450;" parent="1" vertex="1">
                    <mxGeometry x="1187.5" y="650" width="75" height="30" as="geometry"/>
                </mxCell>
                <mxCell id="37" value="Transaction&lt;br&gt;Link" style="html=1;fillColor=#f8cecc;gradientColor=#ea6b66;strokeColor=#b85450;" parent="1" vertex="1">
                    <mxGeometry x="1102.5" y="690" width="75" height="30" as="geometry"/>
                </mxCell>
                <mxCell id="40" value="Transaction" style="html=1;fillColor=#f8cecc;gradientColor=#ea6b66;strokeColor=#b85450;" parent="1" vertex="1">
                    <mxGeometry x="132.5" y="1063" width="70" height="30" as="geometry"/>
                </mxCell>
                <mxCell id="43" value="Contribution" style="html=1;fillColor=#dae8fc;gradientColor=#7ea6e0;strokeColor=#6c8ebf;" parent="1" vertex="1">
                    <mxGeometry x="1187.5" y="687.5" width="75" height="30" as="geometry"/>
                </mxCell>
                <mxCell id="45" value="LoginEmail&lt;br&gt;OptIn" style="html=1;fillColor=#f8cecc;gradientColor=#ea6b66;strokeColor=#b85450;" parent="1" vertex="1">
                    <mxGeometry x="1102.5" y="730" width="75" height="30" as="geometry"/>
                </mxCell>
                <mxCell id="46" value="User" style="html=1;fillColor=#f8cecc;gradientColor=#ea6b66;strokeColor=#b85450;" parent="1" vertex="1">
                    <mxGeometry x="1185" y="730" width="75" height="30" as="geometry"/>
                </mxCell>
                <mxCell id="48" value="enum" style="shape=folder;fontStyle=1;spacingTop=10;tabWidth=40;tabHeight=14;tabPosition=left;html=1;align=left;verticalAlign=top;fillColor=#f5f5f5;gradientColor=#b3b3b3;strokeColor=#666666;" parent="1" vertex="1">
                    <mxGeometry x="745" y="610" width="340" height="220" as="geometry"/>
                </mxCell>
                <mxCell id="49" value="Transaction&lt;br&gt;TypeId" style="html=1;fillColor=#f8cecc;gradientColor=#ea6b66;strokeColor=#b85450;" parent="1" vertex="1">
                    <mxGeometry x="755" y="640" width="100" height="30" as="geometry"/>
                </mxCell>
                <mxCell id="50" value="Contribution&lt;br&gt;Type" style="html=1;fillColor=#f8cecc;gradientColor=#ea6b66;strokeColor=#b85450;" parent="1" vertex="1">
                    <mxGeometry x="755" y="680" width="100" height="30" as="geometry"/>
                </mxCell>
                <mxCell id="51" value="Contribution&lt;br&gt;Status" style="html=1;fillColor=#dae8fc;gradientColor=#7ea6e0;strokeColor=#6c8ebf;" parent="1" vertex="1">
                    <mxGeometry x="865" y="640" width="100" height="30" as="geometry"/>
                </mxCell>
                <mxCell id="53" value="Paginated" style="html=1;fillColor=#dae8fc;gradientColor=#7ea6e0;strokeColor=#6c8ebf;" parent="1" vertex="1">
                    <mxGeometry x="752.5" y="960.5" width="100" height="30" as="geometry"/>
                </mxCell>
                <mxCell id="54" value="Transaction&lt;br&gt;LinkFilters" style="html=1;fillColor=#f8cecc;gradientColor=#ea6b66;strokeColor=#b85450;" parent="1" vertex="1">
                    <mxGeometry x="860" y="960.5" width="100" height="30" as="geometry"/>
                </mxCell>
                <mxCell id="55" value="Order" style="html=1;fillColor=#dae8fc;gradientColor=#7ea6e0;strokeColor=#6c8ebf;" parent="1" vertex="1">
                    <mxGeometry x="865" y="680" width="100" height="30" as="geometry"/>
                </mxCell>
                <mxCell id="59" value="mailer" style="shape=folder;fontStyle=1;spacingTop=10;tabWidth=40;tabHeight=14;tabPosition=left;html=1;align=left;verticalAlign=top;fillColor=#f5f5f5;gradientColor=#b3b3b3;strokeColor=#666666;" parent="1" vertex="1">
                    <mxGeometry x="1097.5" y="930.5" width="290" height="112.5" as="geometry"/>
                </mxCell>
                <mxCell id="60" value="sendAccount&lt;br&gt;ActivationEmail" style="html=1;fillColor=#f8cecc;gradientColor=#ea6b66;strokeColor=#b85450;" parent="1" vertex="1">
                    <mxGeometry x="1107.5" y="960.5" width="95" height="30" as="geometry"/>
                </mxCell>
                <mxCell id="61" value="config" style="shape=folder;fontStyle=1;spacingTop=10;tabWidth=40;tabHeight=14;tabPosition=left;html=1;align=left;verticalAlign=top;fillColor=#f5f5f5;gradientColor=#b3b3b3;strokeColor=#666666;" parent="1" vertex="1">
                    <mxGeometry x="52.5" y="840.5" width="125" height="80" as="geometry"/>
                </mxCell>
                <mxCell id="62" value="CONFIG" style="html=1;fillColor=#f8cecc;gradientColor=#ea6b66;strokeColor=#b85450;" parent="1" vertex="1">
                    <mxGeometry x="62.5" y="880.5" width="95" height="30" as="geometry"/>
                </mxCell>
                <mxCell id="64" value="const" style="shape=folder;fontStyle=1;spacingTop=10;tabWidth=40;tabHeight=14;tabPosition=left;html=1;align=left;verticalAlign=top;fillColor=#f5f5f5;gradientColor=#b3b3b3;strokeColor=#666666;" parent="1" vertex="1">
                    <mxGeometry x="52.5" y="930.5" width="125" height="80" as="geometry"/>
                </mxCell>
                <mxCell id="65" value="const" style="html=1;fillColor=#f8cecc;gradientColor=#ea6b66;strokeColor=#b85450;" parent="1" vertex="1">
                    <mxGeometry x="62.5" y="970.5" width="95" height="30" as="geometry"/>
                </mxCell>
                <mxCell id="66" value="Contribution&lt;br&gt;Message" style="html=1;fillColor=#dae8fc;gradientColor=#7ea6e0;strokeColor=#6c8ebf;" parent="1" vertex="1">
                    <mxGeometry x="1267.5" y="650" width="75" height="30" as="geometry"/>
                </mxCell>
                <mxCell id="67" value="Contribution&lt;br&gt;MessageArgs" style="html=1;fillColor=#f8cecc;gradientColor=#ea6b66;strokeColor=#b85450;" parent="1" vertex="1">
                    <mxGeometry x="972.5" y="880.5" width="100" height="30" as="geometry"/>
                </mxCell>
                <mxCell id="68" value="MessageType" style="html=1;fillColor=#dae8fc;gradientColor=#7ea6e0;strokeColor=#6c8ebf;" parent="1" vertex="1">
                    <mxGeometry x="975" y="640" width="100" height="30" as="geometry"/>
                </mxCell>
                <mxCell id="70" value="type-graphql" style="shape=folder;fontStyle=1;spacingTop=10;tabWidth=40;tabHeight=14;tabPosition=left;html=1;align=left;verticalAlign=top;fillColor=#f5f5f5;gradientColor=#b3b3b3;strokeColor=#666666;" parent="1" vertex="1">
                    <mxGeometry x="225" y="607.5" width="115" height="222.5" as="geometry"/>
                </mxCell>
                <mxCell id="72" value="dbTools" style="shape=folder;fontStyle=1;spacingTop=10;tabWidth=40;tabHeight=14;tabPosition=left;html=1;align=left;verticalAlign=top;fillColor=#f5f5f5;gradientColor=#b3b3b3;strokeColor=#666666;" parent="1" vertex="1">
                    <mxGeometry x="222.5" y="1023" width="115" height="80" as="geometry"/>
                </mxCell>
                <mxCell id="73" value="typeorm" style="html=1;fillColor=#dae8fc;gradientColor=#7ea6e0;strokeColor=#6c8ebf;" parent="1" vertex="1">
                    <mxGeometry x="242.5" y="1063" width="60" height="30" as="geometry"/>
                </mxCell>
                <mxCell id="76" value="Resolver" style="rounded=0;whiteSpace=wrap;html=1;fillColor=#dae8fc;gradientColor=#7ea6e0;strokeColor=#6c8ebf;" parent="1" vertex="1">
                    <mxGeometry x="230" y="647.5" width="50" height="22.5" as="geometry"/>
                </mxCell>
                <mxCell id="77" value="Query" style="rounded=0;whiteSpace=wrap;html=1;fillColor=#dae8fc;gradientColor=#7ea6e0;strokeColor=#6c8ebf;" parent="1" vertex="1">
                    <mxGeometry x="290" y="647.5" width="40" height="22.5" as="geometry"/>
                </mxCell>
                <mxCell id="79" value="Arg" style="rounded=0;whiteSpace=wrap;html=1;fillColor=#dae8fc;gradientColor=#7ea6e0;strokeColor=#6c8ebf;" parent="1" vertex="1">
                    <mxGeometry x="230" y="672.5" width="50" height="17.5" as="geometry"/>
                </mxCell>
                <mxCell id="80" value="Args" style="rounded=0;whiteSpace=wrap;html=1;fillColor=#dae8fc;gradientColor=#7ea6e0;strokeColor=#6c8ebf;" parent="1" vertex="1">
                    <mxGeometry x="290" y="672.5" width="40" height="17.5" as="geometry"/>
                </mxCell>
                <mxCell id="81" value="Authorized" style="rounded=0;whiteSpace=wrap;html=1;fillColor=#dae8fc;gradientColor=#7ea6e0;strokeColor=#6c8ebf;" parent="1" vertex="1">
                    <mxGeometry x="230" y="697.5" width="60" height="22.5" as="geometry"/>
                </mxCell>
                <mxCell id="82" value="Mutation" style="rounded=0;whiteSpace=wrap;html=1;fillColor=#dae8fc;gradientColor=#7ea6e0;strokeColor=#6c8ebf;" parent="1" vertex="1">
                    <mxGeometry x="230" y="727.5" width="60" height="22.5" as="geometry"/>
                </mxCell>
                <mxCell id="83" value="Ctx" style="rounded=0;whiteSpace=wrap;html=1;fillColor=#dae8fc;gradientColor=#7ea6e0;strokeColor=#6c8ebf;" parent="1" vertex="1">
                    <mxGeometry x="300" y="697.5" width="30" height="22.5" as="geometry"/>
                </mxCell>
                <mxCell id="84" value="fs" style="shape=folder;fontStyle=1;spacingTop=10;tabWidth=40;tabHeight=14;tabPosition=left;html=1;align=left;verticalAlign=top;fillColor=#f5f5f5;gradientColor=#b3b3b3;strokeColor=#666666;" parent="1" vertex="1">
                    <mxGeometry x="222.5" y="935.5" width="115" height="80" as="geometry"/>
                </mxCell>
                <mxCell id="85" value="fs" style="html=1;fillColor=#f8cecc;gradientColor=#ea6b66;strokeColor=#b85450;" parent="1" vertex="1">
                    <mxGeometry x="242.5" y="975.5" width="60" height="30" as="geometry"/>
                </mxCell>
                <mxCell id="86" value="JWT" style="html=1;fillColor=#f8cecc;gradientColor=#ea6b66;strokeColor=#b85450;" parent="1" vertex="1">
                    <mxGeometry x="140" y="737.5" width="60" height="30" as="geometry"/>
                </mxCell>
                <mxCell id="87" value="CreateUserArgs" style="html=1;fillColor=#f8cecc;gradientColor=#ea6b66;strokeColor=#b85450;" parent="1" vertex="1">
                    <mxGeometry x="972.5" y="920.5" width="100" height="30" as="geometry"/>
                </mxCell>
                <mxCell id="88" value="Unsecure&lt;br&gt;LoginArgs" style="html=1;fillColor=#f8cecc;gradientColor=#ea6b66;strokeColor=#b85450;" parent="1" vertex="1">
                    <mxGeometry x="972.5" y="960.5" width="100" height="30" as="geometry"/>
                </mxCell>
                <mxCell id="89" value="UpdateUser&lt;br&gt;InfosArgs" style="html=1;fillColor=#f8cecc;gradientColor=#ea6b66;strokeColor=#b85450;" parent="1" vertex="1">
                    <mxGeometry x="752.5" y="1000.5" width="100" height="30" as="geometry"/>
                </mxCell>
                <mxCell id="90" value="middleware" style="shape=folder;fontStyle=1;spacingTop=10;tabWidth=40;tabHeight=14;tabPosition=left;html=1;align=left;verticalAlign=top;fillColor=#f5f5f5;gradientColor=#b3b3b3;strokeColor=#666666;" parent="1" vertex="1">
                    <mxGeometry x="1097.5" y="843" width="115" height="80" as="geometry"/>
                </mxCell>
                <mxCell id="91" value="klicktipp&lt;br&gt;Middleware" style="html=1;fillColor=#f8cecc;gradientColor=#ea6b66;strokeColor=#b85450;" parent="1" vertex="1">
                    <mxGeometry x="1107.5" y="883" width="95" height="30" as="geometry"/>
                </mxCell>
                <mxCell id="92" value="OptInType" style="html=1;fillColor=#f8cecc;gradientColor=#ea6b66;strokeColor=#b85450;" parent="1" vertex="1">
                    <mxGeometry x="975" y="680" width="100" height="30" as="geometry"/>
                </mxCell>
                <mxCell id="93" value="sendReset&lt;br&gt;PasswordEmail" style="html=1;fillColor=#f8cecc;gradientColor=#ea6b66;strokeColor=#b85450;" parent="1" vertex="1">
                    <mxGeometry x="1107.5" y="1000.5" width="95" height="30" as="geometry"/>
                </mxCell>
                <mxCell id="94" value="sendAccountMulti&lt;br&gt;RegistrationEmail" style="html=1;fillColor=#f8cecc;gradientColor=#ea6b66;strokeColor=#b85450;" parent="1" vertex="1">
                    <mxGeometry x="1210" y="960.5" width="107.5" height="30" as="geometry"/>
                </mxCell>
                <mxCell id="95" value="apis" style="shape=folder;fontStyle=1;spacingTop=10;tabWidth=40;tabHeight=14;tabPosition=left;html=1;align=left;verticalAlign=top;fillColor=#f5f5f5;gradientColor=#b3b3b3;strokeColor=#666666;" parent="1" vertex="1">
                    <mxGeometry x="347.5" y="1023" width="162.5" height="80" as="geometry"/>
                </mxCell>
                <mxCell id="96" value="Klicktipp&lt;br&gt;Controller" style="html=1;fillColor=#f8cecc;gradientColor=#ea6b66;strokeColor=#b85450;" parent="1" vertex="1">
                    <mxGeometry x="367.5" y="1063" width="60" height="30" as="geometry"/>
                </mxCell>
                <mxCell id="97" value="event" style="shape=folder;fontStyle=1;spacingTop=10;tabWidth=40;tabHeight=14;tabPosition=left;html=1;align=left;verticalAlign=top;fillColor=#f5f5f5;gradientColor=#b3b3b3;strokeColor=#666666;" parent="1" vertex="1">
                    <mxGeometry x="1227.5" y="843" width="160" height="80" as="geometry"/>
                </mxCell>
                <mxCell id="98" value="EventProtocol&lt;br&gt;Emitter" style="html=1;fillColor=#f8cecc;gradientColor=#ea6b66;strokeColor=#b85450;" parent="1" vertex="1">
                    <mxGeometry x="1237.5" y="883" width="80" height="30" as="geometry"/>
                </mxCell>
                <mxCell id="99" value="Event" style="html=1;fillColor=#f8cecc;gradientColor=#ea6b66;strokeColor=#b85450;" parent="1" vertex="1">
                    <mxGeometry x="1327.5" y="883" width="55" height="30" as="geometry"/>
                </mxCell>
                <mxCell id="101" value="Int" style="rounded=0;whiteSpace=wrap;html=1;fillColor=#dae8fc;gradientColor=#7ea6e0;strokeColor=#6c8ebf;" parent="1" vertex="1">
                    <mxGeometry x="300" y="726.25" width="30" height="23.75" as="geometry"/>
                </mxCell>
                <mxCell id="102" value="decimal" style="shape=folder;fontStyle=1;spacingTop=10;tabWidth=40;tabHeight=14;tabPosition=left;html=1;align=left;verticalAlign=top;fillColor=#f5f5f5;gradientColor=#b3b3b3;strokeColor=#666666;" parent="1" vertex="1">
                    <mxGeometry x="222.5" y="840" width="115" height="80" as="geometry"/>
                </mxCell>
                <mxCell id="103" value="js-light" style="html=1;fillColor=#f8cecc;gradientColor=#ea6b66;strokeColor=#b85450;" parent="1" vertex="1">
                    <mxGeometry x="242.5" y="880" width="60" height="30" as="geometry"/>
                </mxCell>
                <mxCell id="104" value="UserAdmin" style="html=1;fillColor=#f8cecc;gradientColor=#ea6b66;strokeColor=#b85450;" parent="1" vertex="1">
                    <mxGeometry x="482.5" y="642.5" width="70" height="30" as="geometry"/>
                </mxCell>
                <mxCell id="105" value="Unconfirmed&lt;br&gt;Contribution" style="html=1;fillColor=#f8cecc;gradientColor=#ea6b66;strokeColor=#b85450;" parent="1" vertex="1">
                    <mxGeometry x="645" y="642.5" width="75" height="30" as="geometry"/>
                </mxCell>
                <mxCell id="106" value="AdminCreate&lt;br&gt;Contributions" style="html=1;fillColor=#f8cecc;gradientColor=#ea6b66;strokeColor=#b85450;" parent="1" vertex="1">
                    <mxGeometry x="400" y="687.5" width="75" height="30" as="geometry"/>
                </mxCell>
                <mxCell id="107" value="AdminUpdate&lt;br&gt;Contribution" style="html=1;fillColor=#f8cecc;gradientColor=#ea6b66;strokeColor=#b85450;" parent="1" vertex="1">
                    <mxGeometry x="480" y="687.5" width="75" height="30" as="geometry"/>
                </mxCell>
                <mxCell id="108" value="Contribution&lt;br&gt;Link" style="html=1;fillColor=#f8cecc;gradientColor=#ea6b66;strokeColor=#b85450;" parent="1" vertex="1">
                    <mxGeometry x="400" y="727.5" width="75" height="30" as="geometry"/>
                </mxCell>
                <mxCell id="109" value="Contribution&lt;br&gt;LinkList" style="html=1;fillColor=#f8cecc;gradientColor=#ea6b66;strokeColor=#b85450;" parent="1" vertex="1">
                    <mxGeometry x="480" y="727.5" width="75" height="30" as="geometry"/>
                </mxCell>
                <mxCell id="110" value="Transaction" style="html=1;fillColor=#f8cecc;gradientColor=#ea6b66;strokeColor=#b85450;" parent="1" vertex="1">
                    <mxGeometry x="560" y="687.5" width="75" height="30" as="geometry"/>
                </mxCell>
                <mxCell id="111" value="Transaction&lt;br&gt;Link" style="html=1;fillColor=#f8cecc;gradientColor=#ea6b66;strokeColor=#b85450;" parent="1" vertex="1">
                    <mxGeometry x="560" y="727.5" width="75" height="30" as="geometry"/>
                </mxCell>
                <mxCell id="112" value="User" style="html=1;fillColor=#f8cecc;gradientColor=#ea6b66;strokeColor=#b85450;" parent="1" vertex="1">
                    <mxGeometry x="400" y="642.5" width="75" height="30" as="geometry"/>
                </mxCell>
                <mxCell id="113" value="Decay" style="html=1;fillColor=#f8cecc;gradientColor=#ea6b66;strokeColor=#b85450;" parent="1" vertex="1">
                    <mxGeometry x="645" y="687.5" width="75" height="30" as="geometry"/>
                </mxCell>
                <mxCell id="114" value="Contribution&lt;br&gt;Message" style="html=1;fillColor=#dae8fc;gradientColor=#7ea6e0;strokeColor=#6c8ebf;" parent="1" vertex="1">
                    <mxGeometry x="645" y="727.5" width="75" height="30" as="geometry"/>
                </mxCell>
                <mxCell id="115" value="AdminUser" style="html=1;fillColor=#f8cecc;gradientColor=#ea6b66;strokeColor=#b85450;" parent="1" vertex="1">
                    <mxGeometry x="562.5" y="643.75" width="70" height="30" as="geometry"/>
                </mxCell>
                <mxCell id="118" value="sendTransaction&lt;br&gt;ReceivedEmail" style="html=1;fillColor=#f8cecc;gradientColor=#ea6b66;strokeColor=#b85450;" parent="1" vertex="1">
                    <mxGeometry x="1210" y="1000.5" width="107.5" height="30" as="geometry"/>
                </mxCell>
                <mxCell id="119" value="Transaction&lt;br&gt;SendArgs" style="html=1;fillColor=#f8cecc;gradientColor=#ea6b66;strokeColor=#b85450;" parent="1" vertex="1">
                    <mxGeometry x="860" y="1000.5" width="100" height="30" as="geometry"/>
                </mxCell>
                <mxCell id="120" value="Transaction&lt;br&gt;Link" style="html=1;fillColor=#f8cecc;gradientColor=#ea6b66;strokeColor=#b85450;" parent="1" vertex="1">
                    <mxGeometry x="132.5" y="1103" width="70" height="30" as="geometry"/>
                </mxCell>
                <mxCell id="124" value="util" style="shape=folder;fontStyle=1;spacingTop=10;tabWidth=40;tabHeight=14;tabPosition=left;html=1;align=left;verticalAlign=top;fillColor=#f5f5f5;gradientColor=#b3b3b3;strokeColor=#666666;" parent="1" vertex="1">
                    <mxGeometry x="347.5" y="843" width="380" height="120" as="geometry"/>
                </mxCell>
                <mxCell id="125" value="decay" style="html=1;fillColor=#f8cecc;gradientColor=#ea6b66;strokeColor=#b85450;" parent="1" vertex="1">
                    <mxGeometry x="357.5" y="883" width="60" height="30" as="geometry"/>
                </mxCell>
                <mxCell id="126" value="hasElopage&lt;br&gt;Buys" style="html=1;fillColor=#f8cecc;gradientColor=#ea6b66;strokeColor=#b85450;" parent="1" vertex="1">
                    <mxGeometry x="427.5" y="883" width="80" height="30" as="geometry"/>
                </mxCell>
                <mxCell id="127" value="community&lt;br&gt;User" style="html=1;fillColor=#f8cecc;gradientColor=#ea6b66;strokeColor=#b85450;" parent="1" vertex="1">
                    <mxGeometry x="517.5" y="883" width="60" height="30" as="geometry"/>
                </mxCell>
                <mxCell id="128" value="creations" style="html=1;fillColor=#f8cecc;gradientColor=#ea6b66;strokeColor=#b85450;" parent="1" vertex="1">
                    <mxGeometry x="587.5" y="883" width="60" height="30" as="geometry"/>
                </mxCell>
                <mxCell id="129" value="validate" style="html=1;fillColor=#f8cecc;gradientColor=#ea6b66;strokeColor=#b85450;" parent="1" vertex="1">
                    <mxGeometry x="657.5" y="883" width="60" height="30" as="geometry"/>
                </mxCell>
                <mxCell id="130" value="virtual&lt;br&gt;Transactions" style="html=1;fillColor=#f8cecc;gradientColor=#ea6b66;strokeColor=#b85450;" parent="1" vertex="1">
                    <mxGeometry x="427.5" y="923" width="80" height="30" as="geometry"/>
                </mxCell>
                <mxCell id="132" value="Balance" style="html=1;fillColor=#f8cecc;gradientColor=#ea6b66;strokeColor=#b85450;" parent="1" vertex="1">
                    <mxGeometry x="400" y="767.5" width="75" height="30" as="geometry"/>
                </mxCell>
                <mxCell id="133" value="&lt;p style=&quot;margin: 0px ; margin-top: 4px ; text-align: center&quot;&gt;&lt;b&gt;ContributionMessageResolver&lt;/b&gt;&lt;/p&gt;&lt;hr size=&quot;1&quot;&gt;&lt;p style=&quot;margin: 0px ; margin-left: 4px&quot;&gt;&lt;br&gt;&lt;/p&gt;&lt;hr size=&quot;1&quot;&gt;&lt;p style=&quot;margin: 0px ; margin-left: 4px&quot;&gt;+ createContributionMessage():&amp;nbsp;ContributionMessage&lt;/p&gt;&lt;p style=&quot;margin: 0px ; margin-left: 4px&quot;&gt;&lt;span&gt;+ getCommunityInfo(): ContributionMessageListResult&lt;/span&gt;&lt;/p&gt;" style="verticalAlign=top;align=left;overflow=fill;fontSize=12;fontFamily=Helvetica;html=1;" parent="1" vertex="1">
                    <mxGeometry x="865" y="270" width="345" height="100" as="geometry"/>
                </mxCell>
                <mxCell id="134" value="GdtEnrtyList" style="html=1;fillColor=#f8cecc;gradientColor=#ea6b66;strokeColor=#b85450;" parent="1" vertex="1">
                    <mxGeometry x="480" y="767.5" width="75" height="30" as="geometry"/>
                </mxCell>
                <mxCell id="135" value="Http&lt;br&gt;Request" style="html=1;fillColor=#f8cecc;gradientColor=#ea6b66;strokeColor=#b85450;" parent="1" vertex="1">
                    <mxGeometry x="437.5" y="1063" width="60" height="30" as="geometry"/>
                </mxCell>
                <mxCell id="136" value="Community" style="html=1;fillColor=#f8cecc;gradientColor=#ea6b66;strokeColor=#b85450;" parent="1" vertex="1">
                    <mxGeometry x="560" y="767.5" width="75" height="30" as="geometry"/>
                </mxCell>
                <mxCell id="145" style="edgeStyle=none;html=1;entryX=0;entryY=0.75;entryDx=0;entryDy=0;" edge="1" parent="1" source="137" target="133">
                    <mxGeometry relative="1" as="geometry"/>
                </mxCell>
                <mxCell id="137" value="&lt;p style=&quot;margin: 0px ; margin-top: 4px ; text-align: center&quot;&gt;&lt;b&gt;ContributionResolver&lt;/b&gt;&lt;/p&gt;&lt;hr size=&quot;1&quot;&gt;&lt;p style=&quot;margin: 0px ; margin-left: 4px&quot;&gt;&lt;br&gt;&lt;/p&gt;&lt;hr size=&quot;1&quot;&gt;&lt;p style=&quot;margin: 0px ; margin-left: 4px&quot;&gt;+ createContribution():&amp;nbsp;UnconfirmedContribution&lt;/p&gt;&lt;p style=&quot;margin: 0px ; margin-left: 4px&quot;&gt;&lt;span&gt;+ deleteContribution(): boolean&lt;/span&gt;&lt;/p&gt;&lt;p style=&quot;margin: 0px ; margin-left: 4px&quot;&gt;&lt;span&gt;+ deleteContribution(): ContributionListResult&lt;/span&gt;&lt;/p&gt;&lt;p style=&quot;margin: 0px ; margin-left: 4px&quot;&gt;&lt;span&gt;+ listContributions(): ContributionListResult&lt;/span&gt;&lt;/p&gt;&lt;p style=&quot;margin: 0px ; margin-left: 4px&quot;&gt;&lt;span&gt;+ updateContribution(): UnconfirmedContribution&lt;/span&gt;&lt;/p&gt;" style="verticalAlign=top;align=left;overflow=fill;fontSize=12;fontFamily=Helvetica;html=1;" parent="1" vertex="1">
                    <mxGeometry x="405" y="180" width="345" height="140" as="geometry"/>
                </mxCell>
                <mxCell id="138" value="Contribution&lt;br&gt;Message" style="html=1;fillColor=#f8cecc;gradientColor=#ea6b66;strokeColor=#b85450;" parent="1" vertex="1">
                    <mxGeometry x="1267.5" y="650" width="75" height="30" as="geometry"/>
                </mxCell>
                <mxCell id="139" value="Contribution" style="html=1;fillColor=#dae8fc;gradientColor=#7ea6e0;strokeColor=#6c8ebf;" parent="1" vertex="1">
                    <mxGeometry x="1187.5" y="687.5" width="75" height="30" as="geometry"/>
                </mxCell>
                <mxCell id="140" value="MessageType" style="html=1;fillColor=#f8cecc;gradientColor=#ea6b66;strokeColor=#b85450;" parent="1" vertex="1">
                    <mxGeometry x="975" y="640" width="100" height="30" as="geometry"/>
                </mxCell>
                <mxCell id="141" value="Contribution&lt;br&gt;Status" style="html=1;fillColor=#f8cecc;gradientColor=#ea6b66;strokeColor=#b85450;" parent="1" vertex="1">
                    <mxGeometry x="865" y="640" width="100" height="30" as="geometry"/>
                </mxCell>
                <mxCell id="142" value="Order" style="html=1;fillColor=#f8cecc;gradientColor=#ea6b66;strokeColor=#b85450;" parent="1" vertex="1">
                    <mxGeometry x="865" y="680" width="100" height="30" as="geometry"/>
                </mxCell>
                <mxCell id="143" value="Contribution&lt;br&gt;Message" style="html=1;fillColor=#f8cecc;gradientColor=#ea6b66;strokeColor=#b85450;" parent="1" vertex="1">
                    <mxGeometry x="645" y="727.5" width="75" height="30" as="geometry"/>
                </mxCell>
                <mxCell id="144" value="Paginated" style="html=1;fillColor=#f8cecc;gradientColor=#ea6b66;strokeColor=#b85450;" parent="1" vertex="1">
                    <mxGeometry x="752.5" y="960.5" width="100" height="30" as="geometry"/>
                </mxCell>
                <mxCell id="146" value="Subscribe&lt;br&gt;NewsletterArgs" style="html=1;fillColor=#f8cecc;gradientColor=#ea6b66;strokeColor=#b85450;" vertex="1" parent="1">
                    <mxGeometry x="972.5" y="1000.5" width="100" height="30" as="geometry"/>
                </mxCell>
                <mxCell id="147" value="Community&lt;br&gt;Statistics" style="html=1;fillColor=#f8cecc;gradientColor=#ea6b66;strokeColor=#b85450;" vertex="1" parent="1">
                    <mxGeometry x="645" y="767.5" width="75" height="30" as="geometry"/>
                </mxCell>
                <mxCell id="148" value="UseMiddleware" style="rounded=0;whiteSpace=wrap;html=1;fillColor=#f8cecc;gradientColor=#ea6b66;strokeColor=#b85450;" vertex="1" parent="1">
                    <mxGeometry x="230" y="757.5" width="100" height="23.75" as="geometry"/>
                </mxCell>
                <mxCell id="149" value="createUnionType" style="rounded=0;whiteSpace=wrap;html=1;fillColor=#f8cecc;gradientColor=#ea6b66;strokeColor=#b85450;" vertex="1" parent="1">
                    <mxGeometry x="230" y="790" width="100" height="23.75" as="geometry"/>
                </mxCell>
                <mxCell id="150" value="Transaction&lt;br&gt;LinkArgs" style="html=1;fillColor=#f8cecc;gradientColor=#ea6b66;strokeColor=#b85450;" vertex="1" parent="1">
                    <mxGeometry x="752.5" y="1040" width="100" height="30" as="geometry"/>
                </mxCell>
                <mxCell id="151" value="uuid" style="shape=folder;fontStyle=1;spacingTop=10;tabWidth=40;tabHeight=14;tabPosition=left;html=1;align=left;verticalAlign=top;fillColor=#f5f5f5;gradientColor=#b3b3b3;strokeColor=#666666;" vertex="1" parent="1">
                    <mxGeometry x="650" y="1023" width="77.5" height="77" as="geometry"/>
                </mxCell>
                <mxCell id="152" value="v4" style="html=1;fillColor=#f8cecc;gradientColor=#ea6b66;strokeColor=#b85450;" vertex="1" parent="1">
                    <mxGeometry x="660" y="1063" width="60" height="30" as="geometry"/>
                </mxCell>
                <mxCell id="153" value="crypto" style="shape=folder;fontStyle=1;spacingTop=10;tabWidth=40;tabHeight=14;tabPosition=left;html=1;align=left;verticalAlign=top;fillColor=#f5f5f5;gradientColor=#b3b3b3;strokeColor=#666666;" vertex="1" parent="1">
                    <mxGeometry x="550" y="1023" width="95" height="77" as="geometry"/>
                </mxCell>
                <mxCell id="154" value="randomBytes" style="html=1;fillColor=#f8cecc;gradientColor=#ea6b66;strokeColor=#b85450;" vertex="1" parent="1">
                    <mxGeometry x="560" y="1063" width="77.5" height="30" as="geometry"/>
                </mxCell>
            </root>
        </mxGraphModel>
    </diagram>
</mxfile>